<svg xmlns="http://www.w3.org/2000/svg" viewBox="0 0 2048 2048">
<style>
  .brace { fill: #1C1917; }
  .waft  { fill: #B45309; }
  @media (prefers-color-scheme: dark) {
    .brace { fill: #F5EDE4; }
    .waft  { fill: #D97706; }
  }
</style>
<g transform="translate(0,2048) scale(0.1,-0.1)" stroke="none">
<path class="waft" d="M10255 17042 c-118 -41 -172 -99 -334 -364 -357 -581 -548 -1138
-567 -1658 -10 -257 13 -482 77 -738 77 -312 185 -563 439 -1017 316 -566 410
-847 410 -1223 0 -175 -12 -273 -56 -445 -76 -303 -250 -685 -436 -955 -16
-23 -46 -77 -66 -120 -36 -75 -37 -80 -37 -192 0 -108 2 -119 30 -174 109
-217 359 -305 573 -200 75 37 128 92 216 226 259 396 448 811 542 1193 71 288
99 626 75 900 -34 389 -187 843 -427 1267 -78 137 -220 400 -269 498 -98 195
-188 475 -215 670 -15 108 -15 320 0 430 44 328 202 725 441 1110 144 232 152
253 157 375 3 84 0 109 -17 156 -48 126 -145 223 -260 259 -81 25 -206 26
-276 2z"/>
<path class="waft" d="M8183 15171 c-112 -41 -155 -84 -303 -295 -336 -480 -485 -898 -483
-1351 2 -258 44 -471 139 -695 41 -97 79 -169 289 -530 152 -263 199 -374 230
-539 61 -330 -60 -710 -351 -1102 -108 -145 -137 -233 -124 -375 16 -176 153
-327 331 -365 136 -29 291 21 387 126 83 91 293 418 384 599 96 191 171 413
210 626 18 94 22 153 22 325 0 250 -19 374 -88 580 -60 180 -130 323 -285 583
-223 374 -280 518 -296 748 -8 111 13 260 55 384 57 172 183 401 316 575 29
39 66 97 81 130 26 55 28 70 28 175 0 111 -1 118 -34 185 -44 89 -109 153
-197 196 -61 29 -80 33 -164 36 -75 3 -106 -1 -147 -16z"/>
<path class="waft" d="M12420 15169 c-94 -33 -140 -76 -252 -234 -368 -519 -521 -931 -521
-1400 0 -323 56 -542 223 -870 42 -82 121 -224 175 -315 122 -205 196 -359
229 -473 81 -282 47 -565 -105 -870 -47 -94 -108 -191 -252 -400 -75 -110 -92
-161 -92 -278 0 -92 1 -98 43 -182 81 -163 222 -245 403 -235 64 4 92 11 151
41 89 44 123 78 228 231 282 408 428 736 489 1097 61 355 24 686 -115 1032
-48 118 -96 212 -214 412 -238 404 -284 513 -311 735 -27 224 43 487 201 760
24 41 85 134 136 205 108 152 134 211 141 317 14 198 -102 372 -285 428 -83
26 -197 25 -272 -1z"/>
<path class="brace" d="M5795 14704 c-401 -31 -701 -126 -975 -307 -91 -61 -206 -156 -277
-229 -186 -192 -338 -483 -413 -790 -58 -236 -60 -295 -60 -1527 0 -1279 -2
-1326 -77 -1556 -98 -302 -271 -463 -586 -545 -190 -49 -243 -85 -298 -202
l-34 -73 0 -410 c0 -409 0 -410 24 -469 26 -65 94 -141 152 -172 19 -9 86 -30
149 -45 331 -81 517 -262 609 -591 56 -201 54 -142 61 -1503 7 -1342 6 -1313
56 -1535 36 -162 125 -385 205 -517 101 -165 298 -375 450 -480 214 -147 489
-257 755 -303 268 -46 505 -46 630 1 158 59 289 206 324 364 16 70 13 211 -5
279 -36 135 -131 255 -255 320 -88 47 -127 55 -316 66 -193 12 -286 33 -413
96 -195 96 -301 251 -348 509 -15 80 -17 215 -19 1225 -1 624 -5 1180 -8 1235
-21 311 -89 587 -207 834 -128 270 -304 482 -537 647 l-44 32 79 60 c110 84
180 149 261 245 188 222 297 445 378 772 69 282 67 231 74 1580 6 1094 8 1230
23 1314 50 274 155 431 349 525 124 60 184 74 368 86 206 14 261 24 334 58
160 76 273 228 297 400 33 237 -84 459 -296 558 -101 48 -222 62 -410 48z"/>
<path class="brace" d="M14402 14699 c-118 -20 -249 -103 -327 -210 -111 -151 -128 -396 -38
-561 36 -65 122 -159 182 -198 89 -57 143 -71 301 -81 205 -13 292 -26 382
-59 279 -102 411 -309 438 -689 6 -76 10 -608 10 -1204 0 -895 3 -1091 15
-1210 69 -629 305 -1078 740 -1405 l30 -22 -25 -21 c-14 -11 -67 -55 -119 -97
-342 -280 -549 -698 -620 -1257 -20 -153 -21 -210 -21 -1280 0 -683 -4 -1163
-10 -1230 -28 -305 -133 -488 -338 -594 -117 -60 -235 -88 -433 -100 -240 -15
-326 -47 -444 -165 -122 -121 -172 -315 -130 -495 45 -189 210 -352 395 -390
166 -34 458 -12 715 54 689 177 1140 662 1277 1370 21 107 21 141 28 1375 6
1125 8 1276 23 1365 27 157 64 281 114 384 39 80 61 110 132 181 119 119 227
176 418 220 175 41 261 115 298 255 21 81 22 772 1 850 -18 69 -42 113 -85
158 -50 53 -93 73 -229 107 -327 83 -510 262 -607 596 -59 202 -58 179 -65
1539 -7 1388 -2 1293 -76 1564 -180 656 -683 1104 -1373 1221 -221 38 -439 49
-559 29z"/>
</g>
</svg>
